<svg xmlns="http://www.w3.org/2000/svg" xmlns:xlink="http://www.w3.org/1999/xlink" xmlns:lucid="lucid" width="1273.94" height="1073.01"><g transform="translate(-1208.0586849959836 -568.991796875)" lucid:page-tab-id="0_0"><path d="M1000 500h1500v1500H1000z" fill="#f2f3f5"/><path d="M1471.73 652a12 12 0 0 1 12-12H2468a12 12 0 0 1 12 12v976a12 12 0 0 1-12 12h-984.27a12 12 0 0 1-12-12z" stroke="#dfe3e8" stroke-width="4" fill="#fff"/><path d="M1471.73 581a12 12 0 0 1 12-12h160.48a12 12 0 0 1 12 12v35a12 12 0 0 1-12 12h-160.47a12 12 0 0 1-12-12z" fill="#dfe3e8"/><use xlink:href="#a" transform="matrix(1,0,0,1,1483.7256412012475,580.991796875) translate(0 28.525065104166668)"/><use xlink:href="#b" transform="matrix(1,0,0,1,1483.7256412012475,580.991796875) translate(77.78658854166667 28.525065104166668)"/><path d="M1392.32 818.32h202.64a24 24 0 0 0 24-24V762.9a24 24 0 0 1 24-24h186.65" stroke="#3a414a" stroke-width="3" fill="none"/><path d="M1392.35 819.8h-1.53v-2.96h1.53z" stroke="#3a414a" stroke-width=".05" fill="#3a414a"/><path d="M1844.1 738.9l-13 7.5v-15z" stroke="#3a414a" stroke-width="3" fill="#3a414a"/><path d="M1213.44 946.98a6 6 0 0 1 6-6h160.28a6 6 0 0 1 6 6V980a6 6 0 0 1-6 6h-160.28a6 6 0 0 1-6-6z" fill="none"/><use xlink:href="#c" transform="matrix(1,0,0,1,1218.4387822178348,945.9805431010809) translate(28.570930989583324 28.525065104166668)"/><path d="M1208.06 688.9a6 6 0 0 1 6-6h170.76a6 6 0 0 1 6 6v258.82a6 6 0 0 1-6 6h-170.76a6 6 0 0 1-6-6z" fill-opacity="0"/><path d="M1323.4 735.54c0 13.16-10.66 23.83-23.82 23.83s-23.83-10.67-23.83-23.83c0-13.16 10.67-23.83 23.83-23.83 13.16 0 23.83 10.68 23.83 23.84zM1273.18 772.62a6 6 0 0 1 6-6h40.8a6 6 0 0 1 6 6v69.53a6 6 0 0 1-6 6h-40.8a6 6 0 0 1-6-6z" fill="#9391ff"/><path d="M1316.26 783.4a6 6 0 0 1 0-8.5l3.8-3.8a6 6 0 0 1 8.48 0l31.27 31.27a6 6 0 0 1 0 8.5l-3.8 3.8a6 6 0 0 1-8.47 0zM1270.33 770.86a6 6 0 0 1 8.5 0l3.8 3.8a6 6 0 0 1 0 8.5l-31.28 31.26a6 6 0 0 1-8.5 0l-3.8-3.8a6 6 0 0 1 0-8.5zM1273.18 847.86a6 6 0 0 1 6-6h5.38a6 6 0 0 1 6 6v66.25a6 6 0 0 1-6 6h-5.38a6 6 0 0 1-6-6zM1308.6 847.86a6 6 0 0 1 6-6h5.38a6 6 0 0 1 6 6v66.25a6 6 0 0 1-6 6h-5.38a6 6 0 0 1-6-6z" fill="#9391ff"/><path d="M1392.32 818.32h202.64a24 24 0 0 1 24 24v61.83a24 24 0 0 0 24 24h186.65" stroke="#3a414a" stroke-width="3" fill="none"/><path d="M1392.35 819.8h-1.53v-2.96h1.53z" stroke="#3a414a" stroke-width=".05" fill="#3a414a"/><path d="M1844.1 928.15l-13 7.5v-15z" stroke="#3a414a" stroke-width="3" fill="#3a414a"/><path d="M1392.32 818.32h202.64a24 24 0 0 1 24 24V1336a24 24 0 0 0 24 24h186.65" stroke="#3a414a" stroke-width="3" fill="none"/><path d="M1392.35 819.8h-1.53v-2.96h1.53z" stroke="#3a414a" stroke-width=".05" fill="#3a414a"/><path d="M1844.1 1360l-13 7.5v-15z" stroke="#3a414a" stroke-width="3" fill="#3a414a"/><path d="M1301.06 1455.94l.28 3.58.82 3.44 1.36 3.26 1.84 3.02 2.3 2.68 2.68 2.3 3.02 1.85 3.26 1.35 3.44.82 3.58.3h579.4l3.6-.3 3.42-.82 3.27-1.35 3-1.85 2.7-2.3 2.3-2.68 1.84-3.02 1.35-3.26.83-3.44.28-3.58v-14.44h2.95v14.56l-.3 3.93-.94 3.87-1.53 3.7-2.08 3.4-2.6 3.05-3.04 2.6-3.4 2.08-3.7 1.53-3.9.94-3.92.3h-579.64l-3.92-.3-3.9-.94-3.7-1.53-3.4-2.1-3.04-2.58-2.6-3.04-2.08-3.4-1.53-3.7-.93-3.9-.3-3.92V1003.5h2.94z" stroke="#3a414a" stroke-width=".05" fill="#3a414a"/><path d="M1927.1 1440h.68l.8-.03v1.57h-2.95v-1.6z" fill="#3a414a"/><path stroke="#3a414a" stroke-width=".05" fill="#3a414a"/><path d="M1307.08 1002h-15l7.5-13z" fill="#3a414a"/><path d="M1309.64 1003.46h-20.1l10.04-17.4zm-15-2.95h9.9l-4.96-8.55z" stroke="#3a414a" stroke-width=".05" fill="#3a414a"/><path d="M2007.1 928.15c0 44.18-35.8 80-80 80-44.18 0-80-35.82-80-80s35.82-80 80-80c44.2 0 80 35.82 80 80z" fill="#9391ff"/><use xlink:href="#d" transform="matrix(1,0,0,1,1855.1047445097329,856.148400933176) translate(22.005859375 83.6875)"/><path d="M2007.1 1144.07c0 44.2-35.8 80-80 80-44.18 0-80-35.8-80-80 0-44.18 35.82-80 80-80 44.2 0 80 35.82 80 80z" fill="#9391ff"/><use xlink:href="#e" transform="matrix(1,0,0,1,1855.1047445097329,1072.074200466588) translate(31.1337890625 83.6875)"/><path d="M1392.32 818.32h202.64a24 24 0 0 1 24 24v277.75a24 24 0 0 0 24 24h186.65" stroke="#3a414a" stroke-width="3" fill="none"/><path d="M1392.35 819.8h-1.53v-2.96h1.53z" stroke="#3a414a" stroke-width=".05" fill="#3a414a"/><path d="M1844.1 1144.07l-13 7.5v-15z" stroke="#3a414a" stroke-width="3" fill="#3a414a"/><path d="M1928.58 1062.57h-2.95v-12.1h2.95zm0-33.6h-2.95v-3.33h2.95z" stroke="#3a414a" stroke-width=".05" fill="#3a414a"/><path d="M1928.58 1064.12l-1.47-.05h-.67l-.8.04v-1.56h2.95z" fill="#3a414a"/><path stroke="#3a414a" stroke-width=".05" fill="#3a414a"/><path d="M1934.6 1024.14h-15l7.5-13z" fill="#3a414a"/><path d="M1937.16 1025.6h-20.1l10.05-17.4zm-15-2.94h9.9l-4.95-8.56z" stroke="#3a414a" stroke-width=".05" fill="#3a414a"/><use xlink:href="#f" transform="matrix(1,0,0,1,1870.9589111763996,1028.957930736092) translate(0 17.22222222222222)"/><path d="M2007.1 1360c0 44.18-35.8 80-80 80-44.18 0-80-35.82-80-80s35.82-80 80-80c44.2 0 80 35.82 80 80z" fill="#9391ff"/><use xlink:href="#g" transform="matrix(1,0,0,1,1855.1047445097329,1288) translate(32.3779296875 83.6875)"/><path d="M2029.86 738.9c0 44.2-40.9 80-91.38 80-50.46 0-91.38-35.8-91.38-80 0-44.18 40.92-80 91.38-80 50.47 0 91.38 35.82 91.38 80z" fill="#9391ff"/><use xlink:href="#h" transform="matrix(1,0,0,1,1856.2425525495175,666.9020676473284) translate(2.33544921875 83.6875)"/><defs><path d="M180 0v-1490h510c348 0 508 194 508 460 0 198-88 351-276 417L1256 0h-220L726-579c-117 2-238 0-356 1V0H180zm190-747h312c235 0 327-108 327-283 0-177-92-293-329-293H370v576" id="i"/><path d="M628 24c-324 0-524-230-524-574 0-343 198-582 503-582 237 0 487 146 487 559v75H286c9 234 145 362 343 362 132 0 231-58 273-172l174 48C1024-91 857 24 628 24zM287-650h624c-17-190-120-322-304-322-192 0-309 151-320 322" id="j"/><path d="M577 24c-279 0-473-224-473-580 0-354 195-576 474-576 218 0 287 134 324 193h14v-551h180V0H922v-173h-20C865-111 790 24 577 24zm27-161c203 0 314-172 314-421 0-247-108-413-314-413-212 0-317 181-317 413 0 235 108 421 317 421" id="k"/><g id="a"><use transform="matrix(0.014127604166666669,0,0,0.014127604166666669,0,0)" xlink:href="#i"/><use transform="matrix(0.014127604166666669,0,0,0.014127604166666669,18.19635416666667,0)" xlink:href="#j"/><use transform="matrix(0.014127604166666669,0,0,0.014127604166666669,35.06471354166667,0)" xlink:href="#k"/><use transform="matrix(0.014127604166666669,0,0,0.014127604166666669,52.780729166666674,0)" xlink:href="#j"/></g><path d="M657 26c-323 0-524-166-541-416h195c15 169 171 246 346 246 202 0 356-106 356-265 5-203-294-238-475-293-239-73-380-191-380-389 0-252 224-419 512-419 294 0 499 171 508 396H992c-17-145-151-228-328-228-193 0-321 102-321 242 0 156 175 211 284 241l149 41c160 44 422 134 422 412 0 244-197 432-541 432" id="l"/><path d="M613 24c-304 0-509-231-509-576 0-350 205-580 509-580 305 0 511 230 511 580 0 345-206 576-511 576zm0-161c226 0 329-195 329-415 0-222-103-419-329-419-223 0-326 196-326 419 0 220 103 415 326 415" id="m"/><path d="M613 24c-304 0-509-231-509-576 0-350 205-580 509-580 216 0 392 114 453 309l-173 49c-33-115-133-197-280-197-223 0-326 196-326 419 0 220 103 415 326 415 150 0 252-85 285-206l172 49C1010-95 832 24 613 24" id="n"/><path d="M158 0v-1118h180V0H158zm91-1301c-68 0-125-53-125-119s57-119 125-119c69 0 126 53 126 119s-57 119-126 119" id="o"/><path d="M471 26C259 26 90-98 90-318c0-256 228-303 435-329 202-27 287-16 287-108 0-139-79-219-234-219-161 0-248 86-283 164l-173-57c86-203 278-265 451-265 150 0 419 46 419 395V0H815v-152h-12C765-73 660 26 471 26zm31-159c199 0 310-134 310-271v-155c-30 35-226 55-295 64-131 17-246 59-246 186 0 116 97 176 231 176" id="p"/><path d="M338-1490V0H158v-1490h180" id="q"/><g id="b"><use transform="matrix(0.014127604166666669,0,0,0.014127604166666669,0,0)" xlink:href="#l"/><use transform="matrix(0.014127604166666669,0,0,0.014127604166666669,18.563671875,0)" xlink:href="#m"/><use transform="matrix(0.014127604166666669,0,0,0.014127604166666669,35.91236979166667,0)" xlink:href="#n"/><use transform="matrix(0.014127604166666669,0,0,0.014127604166666669,52.44166666666668,0)" xlink:href="#o"/><use transform="matrix(0.014127604166666669,0,0,0.014127604166666669,59.448958333333344,0)" xlink:href="#p"/><use transform="matrix(0.014127604166666669,0,0,0.014127604166666669,75.69570312500001,0)" xlink:href="#q"/></g><path d="M763 24c-353 0-583-224-583-531v-983h190v968c0 214 149 370 393 370 243 0 391-156 391-370v-968h190v983c0 307-230 531-581 531" id="r"/><path d="M538 24C308 24 148-78 108-271l171-41c32 123 123 178 257 178 156 0 256-77 256-169 0-77-54-128-164-154l-186-44c-203-48-300-148-300-305 0-192 176-326 414-326 230 0 351 112 402 269l-163 42c-31-80-94-158-238-158-133 0-233 69-233 162 0 83 57 129 188 160l169 40c203 48 298 149 298 302 0 196-179 339-441 339" id="s"/><path d="M537 14c-226 0-379-139-379-422v-710h180v695c0 172 97 275 253 275 160 0 281-109 281-300v-670h181V0H879v-209C806-46 684 14 537 14" id="t"/><path d="M471 26C259 26 90-98 90-318c0-256 228-303 435-329 202-27 287-16 287-108 0-139-79-219-234-219-161 0-248 86-283 164l-173-57c86-203 278-265 451-265 150 0 419 46 419 395V0H815v-152h-12C765-73 660 26 471 26zm31-159c199 0 310-134 310-271v-155c-30 35-226 55-295 64-131 17-246 59-246 186 0 116 97 176 231 176zm-23-1131l140-294h201l-194 294H479" id="u"/><path d="M158 0v-1118h174v172h12c41-113 157-188 290-188 26 0 70 2 91 3v181c-11-2-60-10-108-10-161 0-279 109-279 260V0H158" id="v"/><g id="c"><use transform="matrix(0.014127604166666669,0,0,0.014127604166666669,0,0)" xlink:href="#r"/><use transform="matrix(0.014127604166666669,0,0,0.014127604166666669,21.530468750000004,0)" xlink:href="#s"/><use transform="matrix(0.014127604166666669,0,0,0.014127604166666669,36.80240885416667,0)" xlink:href="#t"/><use transform="matrix(0.014127604166666669,0,0,0.014127604166666669,53.9109375,0)" xlink:href="#u"/><use transform="matrix(0.014127604166666669,0,0,0.014127604166666669,70.15768229166667,0)" xlink:href="#v"/><use transform="matrix(0.014127604166666669,0,0,0.014127604166666669,81.50214843750001,0)" xlink:href="#o"/><use transform="matrix(0.014127604166666669,0,0,0.014127604166666669,88.50944010416669,0)" xlink:href="#m"/></g><path d="M180 0v-1490h510c348 0 508 209 508 474 0 266-160 477-507 477H370V0H180zm190-706h312c236 0 327-133 327-310 0-176-91-307-329-307H370v617" id="w"/><path d="M677 24c-213 0-288-135-325-197h-20V0H158v-1490h180v551h14c37-59 106-193 324-193 279 0 474 222 474 576 0 356-194 580-473 580zm-27-161c209 0 317-186 317-421 0-232-105-413-317-413-206 0-314 166-314 413 0 249 111 421 314 421" id="x"/><g id="d"><use transform="matrix(0.0126953125,0,0,0.0126953125,0,0)" xlink:href="#w"/><use transform="matrix(0.0126953125,0,0,0.0126953125,16.60546875,0)" xlink:href="#t"/><use transform="matrix(0.0126953125,0,0,0.0126953125,31.9794921875,0)" xlink:href="#x"/><use transform="matrix(0.0126953125,0,0,0.0126953125,47.8994140625,0)" xlink:href="#q"/><use transform="matrix(0.0126953125,0,0,0.0126953125,54.1962890625,0)" xlink:href="#o"/><use transform="matrix(0.0126953125,0,0,0.0126953125,60.4931640625,0)" xlink:href="#n"/><use transform="matrix(0.0126953125,0,0,0.0126953125,75.6005859375,0)" xlink:href="#p"/><use transform="matrix(0.0126953125,0,0,0.0126953125,90.2001953125,0)" xlink:href="#v"/></g><path d="M789 20c-398 0-667-293-667-764 0-473 273-766 655-766 315 0 558 198 612 487h-196c-61-191-204-311-415-311-262 0-471 207-471 590 0 380 208 588 482 588 249 0 420-165 425-427H828v-166h572v163c0 370-256 606-611 606" id="y"/><path d="M598-1118v154H368v674c0 100 37 144 132 144 23 0 62-6 92-12L629-6c-37 13-88 20-134 20-193 0-307-107-307-290v-688H20v-154h168v-266h180v266h230" id="z"/><g id="e"><use transform="matrix(0.0126953125,0,0,0.0126953125,0,0)" xlink:href="#y"/><use transform="matrix(0.0126953125,0,0,0.0126953125,19.3984375,0)" xlink:href="#m"/><use transform="matrix(0.0126953125,0,0,0.0126953125,34.98828125,0)" xlink:href="#s"/><use transform="matrix(0.0126953125,0,0,0.0126953125,48.7119140625,0)" xlink:href="#z"/><use transform="matrix(0.0126953125,0,0,0.0126953125,57.3447265625,0)" xlink:href="#p"/><use transform="matrix(0.0126953125,0,0,0.0126953125,71.9443359375,0)" xlink:href="#v"/></g><path fill="#333" d="M166-471v-247l1019-454v289L492-601v13l693 282v287" id="A"/><path fill="#333" d="M128 0v-1118h300V0H128zm150-1264c-91 0-165-68-165-154 0-85 74-154 165-154 90 0 165 69 165 154 0 86-75 154-165 154" id="B"/><path fill="#333" d="M428-647V0H128v-1118h283l4 231c63-156 176-245 348-245 232 0 384 159 384 421V0H847v-659c0-139-76-222-202-222-128 0-217 86-217 234" id="C"/><path fill="#333" d="M628 22C291 22 81-210 81-554c0-346 210-578 547-578 265 0 455 142 497 372l-279 52c-25-116-99-188-215-188-160 0-244 139-244 341 0 200 84 341 244 341 116 0 193-74 217-195l279 51C1085-123 896 22 628 22" id="D"/><path fill="#333" d="M428-1490V0H128v-1490h300" id="E"/><path fill="#333" d="M513 14c-232 0-385-159-385-421v-711h300v659c0 139 76 222 202 222 127 0 217-86 217-234v-647h301V0H864l-4-232C797-74 683 14 513 14" id="F"/><path fill="#333" d="M537 19C279 19 81-185 81-557c0-382 206-575 454-575 190 0 278 113 318 202h10v-560h300V0H868v-179h-15C812-89 719 19 537 19zm92-241c153 0 240-134 240-336 0-203-86-334-240-334-158 0-240 138-240 334 0 197 84 336 240 336" id="G"/><path fill="#333" d="M633 22C291 22 81-200 81-553c0-345 210-579 537-579 292 0 525 185 525 567v84H378c7 183 109 277 260 277 105 0 184-46 216-132l272 51C1071-99 893 22 633 22zM380-669h474c-15-146-94-237-233-237-143 0-229 99-241 237" id="H"/><path fill="#333" d="M1224-471L205-19v-287l694-281v-14L205-883v-289l1019 454v247" id="I"/><g id="f"><use transform="matrix(0.008680555555555556,0,0,0.008680555555555556,0,0)" xlink:href="#A"/><use transform="matrix(0.008680555555555556,0,0,0.008680555555555556,12.065972222222223,0)" xlink:href="#A"/><use transform="matrix(0.008680555555555556,0,0,0.008680555555555556,24.131944444444446,0)" xlink:href="#B"/><use transform="matrix(0.008680555555555556,0,0,0.008680555555555556,28.94965277777778,0)" xlink:href="#C"/><use transform="matrix(0.008680555555555556,0,0,0.008680555555555556,40.017361111111114,0)" xlink:href="#D"/><use transform="matrix(0.008680555555555556,0,0,0.008680555555555556,50.47743055555556,0)" xlink:href="#E"/><use transform="matrix(0.008680555555555556,0,0,0.008680555555555556,55.29513888888889,0)" xlink:href="#F"/><use transform="matrix(0.008680555555555556,0,0,0.008680555555555556,66.36284722222223,0)" xlink:href="#G"/><use transform="matrix(0.008680555555555556,0,0,0.008680555555555556,77.56944444444446,0)" xlink:href="#H"/><use transform="matrix(0.008680555555555556,0,0,0.008680555555555556,88.15972222222223,0)" xlink:href="#I"/><use transform="matrix(0.008680555555555556,0,0,0.008680555555555556,100.22569444444447,0)" xlink:href="#I"/></g><path d="M611 442c-248 0-391-105-460-228l146-94c47 65 117 165 314 165 178 0 307-82 307-266v-224h-17C863-141 792-18 576-18c-268 0-472-195-472-546 0-346 197-568 476-568 216 0 288 133 326 193h17v-179h175V29c0 289-215 413-487 413zm-5-620c203 0 314-146 314-390 0-237-108-403-314-403-213 0-319 180-319 403 0 230 109 390 319 390" id="J"/><g id="g"><use transform="matrix(0.0126953125,0,0,0.0126953125,0,0)" xlink:href="#l"/><use transform="matrix(0.0126953125,0,0,0.0126953125,16.681640625,0)" xlink:href="#j"/><use transform="matrix(0.0126953125,0,0,0.0126953125,31.83984375,0)" xlink:href="#J"/><use transform="matrix(0.0126953125,0,0,0.0126953125,47.78515625,0)" xlink:href="#t"/><use transform="matrix(0.0126953125,0,0,0.0126953125,63.1591796875,0)" xlink:href="#o"/><use transform="matrix(0.0126953125,0,0,0.0126953125,69.4560546875,0)" xlink:href="#v"/></g><path d="M783 20c-382 0-661-292-661-764 0-473 279-766 661-766 302 0 548 182 601 489h-190c-42-204-217-313-411-313-268 0-476 208-476 590 0 381 209 588 476 588 195 0 369-110 411-313h190c-52 303-296 489-601 489" id="K"/><path d="M798-719v166H144v-166h654" id="L"/><g id="h"><use transform="matrix(0.0126953125,0,0,0.0126953125,0,0)" xlink:href="#K"/><use transform="matrix(0.0126953125,0,0,0.0126953125,18.9921875,0)" xlink:href="#p"/><use transform="matrix(0.0126953125,0,0,0.0126953125,33.591796875,0)" xlink:href="#k"/><use transform="matrix(0.0126953125,0,0,0.0126953125,49.51171875,0)" xlink:href="#p"/><use transform="matrix(0.0126953125,0,0,0.0126953125,64.111328125,0)" xlink:href="#s"/><use transform="matrix(0.0126953125,0,0,0.0126953125,77.8349609375,0)" xlink:href="#z"/><use transform="matrix(0.0126953125,0,0,0.0126953125,86.3408203125,0)" xlink:href="#v"/><use transform="matrix(0.0126953125,0,0,0.0126953125,96.12890625,0)" xlink:href="#p"/><use transform="matrix(0.0126953125,0,0,0.0126953125,110.728515625,0)" xlink:href="#v"/><use transform="matrix(0.0126953125,0,0,0.0126953125,119.48828125,0)" xlink:href="#L"/><use transform="matrix(0.0126953125,0,0,0.0126953125,131.447265625,0)" xlink:href="#s"/><use transform="matrix(0.0126953125,0,0,0.0126953125,145.1708984375,0)" xlink:href="#j"/></g></defs></g></svg>